<?xml version="1.0" standalone="no"?>
<!DOCTYPE svg PUBLIC "-//W3C//DTD SVG 20010904//EN"
 "http://www.w3.org/TR/2001/REC-SVG-20010904/DTD/svg10.dtd">
<svg version="1.0" xmlns="http://www.w3.org/2000/svg"
 width="170.000000pt" height="170.000000pt" viewBox="0 0 170.000000 170.000000"
 preserveAspectRatio="xMidYMid meet">

<g transform="translate(0.000000,170.000000) scale(0.100000,-0.100000)"
fill="#000000" stroke="none">
<path d="M441 1467 l-261 -211 2 -521 3 -520 155 -32 c149 -31 236 -36 345
-19 19 3 20 12 23 299 l2 297 23 0 c24 0 129 -17 159 -26 16 -5 18 -32 20
-332 l3 -327 135 -27 c131 -26 303 -36 358 -22 l22 6 0 514 0 513 -247 295
c-137 162 -253 293 -259 291 -6 -2 -16 1 -20 5 -11 11 -64 19 -145 24 l-56 4
-262 -211z"/>
</g>
</svg>
